<?xml version="1.0" encoding="UTF-8" standalone="no"?>
<!-- This is a Stata 18.0 generated SVG file (http://www.stata.com) -->

<svg version="1.1" width="7.500in" height="4.500in" viewBox="0 0 5400 3240" xmlns="http://www.w3.org/2000/svg" xmlns:xlink="http://www.w3.org/1999/xlink">
	<desc>Stata Graph - Graph</desc>
	<rect x="0" y="0" width="5400" height="3240" style="fill:#FFFFFF;stroke:none"/>
	<rect x="0.00" y="0.00" width="5400.00" height="3240.00" style="fill:#FFFFFF"/>
	<rect x="3.24" y="3.24" width="5393.52" height="3233.52" style="fill:none;stroke:#FFFFFF;stroke-width:6.48"/>
	<rect x="557.72" y="113.40" width="2829.43" height="2653.26" style="fill:#FFFFFF"/>
	<rect x="560.96" y="116.64" width="2822.95" height="2646.78" style="fill:none;stroke:#FFFFFF;stroke-width:6.48"/>
	<line x1="557.72" y1="2766.66" x2="622.52" y2="2766.66" style="stroke:#F0F0F0;stroke-width:9.72"/>
	<line x1="654.92" y1="2766.66" x2="719.72" y2="2766.66" style="stroke:#F0F0F0;stroke-width:9.72"/>
	<line x1="752.12" y1="2766.66" x2="816.92" y2="2766.66" style="stroke:#F0F0F0;stroke-width:9.72"/>
	<line x1="849.32" y1="2766.66" x2="914.12" y2="2766.66" style="stroke:#F0F0F0;stroke-width:9.72"/>
	<line x1="946.52" y1="2766.66" x2="1011.32" y2="2766.66" style="stroke:#F0F0F0;stroke-width:9.72"/>
	<line x1="1043.72" y1="2766.66" x2="1108.52" y2="2766.66" style="stroke:#F0F0F0;stroke-width:9.72"/>
	<line x1="1140.92" y1="2766.66" x2="1205.72" y2="2766.66" style="stroke:#F0F0F0;stroke-width:9.72"/>
	<line x1="1238.12" y1="2766.66" x2="1302.92" y2="2766.66" style="stroke:#F0F0F0;stroke-width:9.72"/>
	<line x1="1335.32" y1="2766.66" x2="1400.12" y2="2766.66" style="stroke:#F0F0F0;stroke-width:9.72"/>
	<line x1="1432.52" y1="2766.66" x2="1497.32" y2="2766.66" style="stroke:#F0F0F0;stroke-width:9.72"/>
	<line x1="1529.72" y1="2766.66" x2="1594.52" y2="2766.66" style="stroke:#F0F0F0;stroke-width:9.72"/>
	<line x1="1626.92" y1="2766.66" x2="1691.72" y2="2766.66" style="stroke:#F0F0F0;stroke-width:9.72"/>
	<line x1="1724.12" y1="2766.66" x2="1788.92" y2="2766.66" style="stroke:#F0F0F0;stroke-width:9.72"/>
	<line x1="1821.32" y1="2766.66" x2="1886.12" y2="2766.66" style="stroke:#F0F0F0;stroke-width:9.72"/>
	<line x1="1918.52" y1="2766.66" x2="1983.32" y2="2766.66" style="stroke:#F0F0F0;stroke-width:9.72"/>
	<line x1="2015.72" y1="2766.66" x2="2080.52" y2="2766.66" style="stroke:#F0F0F0;stroke-width:9.72"/>
	<line x1="2112.92" y1="2766.66" x2="2177.72" y2="2766.66" style="stroke:#F0F0F0;stroke-width:9.72"/>
	<line x1="2210.12" y1="2766.66" x2="2274.92" y2="2766.66" style="stroke:#F0F0F0;stroke-width:9.72"/>
	<line x1="2307.32" y1="2766.66" x2="2372.12" y2="2766.66" style="stroke:#F0F0F0;stroke-width:9.72"/>
	<line x1="2404.52" y1="2766.66" x2="2469.32" y2="2766.66" style="stroke:#F0F0F0;stroke-width:9.72"/>
	<line x1="2501.72" y1="2766.66" x2="2566.52" y2="2766.66" style="stroke:#F0F0F0;stroke-width:9.72"/>
	<line x1="2598.92" y1="2766.66" x2="2663.72" y2="2766.66" style="stroke:#F0F0F0;stroke-width:9.72"/>
	<line x1="2696.12" y1="2766.66" x2="2760.92" y2="2766.66" style="stroke:#F0F0F0;stroke-width:9.72"/>
	<line x1="2793.32" y1="2766.66" x2="2858.12" y2="2766.66" style="stroke:#F0F0F0;stroke-width:9.72"/>
	<line x1="2890.52" y1="2766.66" x2="2955.32" y2="2766.66" style="stroke:#F0F0F0;stroke-width:9.72"/>
	<line x1="2987.72" y1="2766.66" x2="3052.52" y2="2766.66" style="stroke:#F0F0F0;stroke-width:9.72"/>
	<line x1="3084.92" y1="2766.66" x2="3149.72" y2="2766.66" style="stroke:#F0F0F0;stroke-width:9.72"/>
	<line x1="3182.12" y1="2766.66" x2="3246.92" y2="2766.66" style="stroke:#F0F0F0;stroke-width:9.72"/>
	<line x1="3279.32" y1="2766.66" x2="3344.12" y2="2766.66" style="stroke:#F0F0F0;stroke-width:9.72"/>
	<line x1="3376.52" y1="2766.66" x2="3387.15" y2="2766.66" style="stroke:#F0F0F0;stroke-width:9.72"/>
	<line x1="557.72" y1="2121.19" x2="622.52" y2="2121.19" style="stroke:#F0F0F0;stroke-width:9.72"/>
	<line x1="654.92" y1="2121.19" x2="719.72" y2="2121.19" style="stroke:#F0F0F0;stroke-width:9.72"/>
	<line x1="752.12" y1="2121.19" x2="816.92" y2="2121.19" style="stroke:#F0F0F0;stroke-width:9.72"/>
	<line x1="849.32" y1="2121.19" x2="914.12" y2="2121.19" style="stroke:#F0F0F0;stroke-width:9.72"/>
	<line x1="946.52" y1="2121.19" x2="1011.32" y2="2121.19" style="stroke:#F0F0F0;stroke-width:9.72"/>
	<line x1="1043.72" y1="2121.19" x2="1108.52" y2="2121.19" style="stroke:#F0F0F0;stroke-width:9.72"/>
	<line x1="1140.92" y1="2121.19" x2="1205.72" y2="2121.19" style="stroke:#F0F0F0;stroke-width:9.72"/>
	<line x1="1238.12" y1="2121.19" x2="1302.92" y2="2121.19" style="stroke:#F0F0F0;stroke-width:9.72"/>
	<line x1="1335.32" y1="2121.19" x2="1400.12" y2="2121.19" style="stroke:#F0F0F0;stroke-width:9.72"/>
	<line x1="1432.52" y1="2121.19" x2="1497.32" y2="2121.19" style="stroke:#F0F0F0;stroke-width:9.72"/>
	<line x1="1529.72" y1="2121.19" x2="1594.52" y2="2121.19" style="stroke:#F0F0F0;stroke-width:9.72"/>
	<line x1="1626.92" y1="2121.19" x2="1691.72" y2="2121.19" style="stroke:#F0F0F0;stroke-width:9.72"/>
	<line x1="1724.12" y1="2121.19" x2="1788.92" y2="2121.19" style="stroke:#F0F0F0;stroke-width:9.72"/>
	<line x1="1821.32" y1="2121.19" x2="1886.12" y2="2121.19" style="stroke:#F0F0F0;stroke-width:9.72"/>
	<line x1="1918.52" y1="2121.19" x2="1983.32" y2="2121.19" style="stroke:#F0F0F0;stroke-width:9.72"/>
	<line x1="2015.72" y1="2121.19" x2="2080.52" y2="2121.19" style="stroke:#F0F0F0;stroke-width:9.72"/>
	<line x1="2112.92" y1="2121.19" x2="2177.72" y2="2121.19" style="stroke:#F0F0F0;stroke-width:9.72"/>
	<line x1="2210.12" y1="2121.19" x2="2274.92" y2="2121.19" style="stroke:#F0F0F0;stroke-width:9.72"/>
	<line x1="2307.32" y1="2121.19" x2="2372.12" y2="2121.19" style="stroke:#F0F0F0;stroke-width:9.72"/>
	<line x1="2404.52" y1="2121.19" x2="2469.32" y2="2121.19" style="stroke:#F0F0F0;stroke-width:9.72"/>
	<line x1="2501.72" y1="2121.19" x2="2566.52" y2="2121.19" style="stroke:#F0F0F0;stroke-width:9.72"/>
	<line x1="2598.92" y1="2121.19" x2="2663.72" y2="2121.19" style="stroke:#F0F0F0;stroke-width:9.72"/>
	<line x1="2696.12" y1="2121.19" x2="2760.92" y2="2121.19" style="stroke:#F0F0F0;stroke-width:9.72"/>
	<line x1="2793.32" y1="2121.19" x2="2858.12" y2="2121.19" style="stroke:#F0F0F0;stroke-width:9.72"/>
	<line x1="2890.52" y1="2121.19" x2="2955.32" y2="2121.19" style="stroke:#F0F0F0;stroke-width:9.72"/>
	<line x1="2987.72" y1="2121.19" x2="3052.52" y2="2121.19" style="stroke:#F0F0F0;stroke-width:9.72"/>
	<line x1="3084.92" y1="2121.19" x2="3149.72" y2="2121.19" style="stroke:#F0F0F0;stroke-width:9.72"/>
	<line x1="3182.12" y1="2121.19" x2="3246.92" y2="2121.19" style="stroke:#F0F0F0;stroke-width:9.72"/>
	<line x1="3279.32" y1="2121.19" x2="3344.12" y2="2121.19" style="stroke:#F0F0F0;stroke-width:9.72"/>
	<line x1="3376.52" y1="2121.19" x2="3387.15" y2="2121.19" style="stroke:#F0F0F0;stroke-width:9.72"/>
	<line x1="557.72" y1="1475.72" x2="622.52" y2="1475.72" style="stroke:#F0F0F0;stroke-width:9.72"/>
	<line x1="654.92" y1="1475.72" x2="719.72" y2="1475.72" style="stroke:#F0F0F0;stroke-width:9.72"/>
	<line x1="752.12" y1="1475.72" x2="816.92" y2="1475.72" style="stroke:#F0F0F0;stroke-width:9.72"/>
	<line x1="849.32" y1="1475.72" x2="914.12" y2="1475.72" style="stroke:#F0F0F0;stroke-width:9.72"/>
	<line x1="946.52" y1="1475.72" x2="1011.32" y2="1475.72" style="stroke:#F0F0F0;stroke-width:9.72"/>
	<line x1="1043.72" y1="1475.72" x2="1108.52" y2="1475.72" style="stroke:#F0F0F0;stroke-width:9.72"/>
	<line x1="1140.92" y1="1475.72" x2="1205.72" y2="1475.72" style="stroke:#F0F0F0;stroke-width:9.72"/>
	<line x1="1238.12" y1="1475.72" x2="1302.92" y2="1475.72" style="stroke:#F0F0F0;stroke-width:9.72"/>
	<line x1="1335.32" y1="1475.72" x2="1400.12" y2="1475.72" style="stroke:#F0F0F0;stroke-width:9.72"/>
	<line x1="1432.52" y1="1475.72" x2="1497.32" y2="1475.72" style="stroke:#F0F0F0;stroke-width:9.72"/>
	<line x1="1529.72" y1="1475.72" x2="1594.52" y2="1475.72" style="stroke:#F0F0F0;stroke-width:9.72"/>
	<line x1="1626.92" y1="1475.72" x2="1691.72" y2="1475.72" style="stroke:#F0F0F0;stroke-width:9.72"/>
	<line x1="1724.12" y1="1475.72" x2="1788.92" y2="1475.72" style="stroke:#F0F0F0;stroke-width:9.72"/>
	<line x1="1821.32" y1="1475.72" x2="1886.12" y2="1475.72" style="stroke:#F0F0F0;stroke-width:9.72"/>
	<line x1="1918.52" y1="1475.72" x2="1983.32" y2="1475.72" style="stroke:#F0F0F0;stroke-width:9.72"/>
	<line x1="2015.72" y1="1475.72" x2="2080.52" y2="1475.72" style="stroke:#F0F0F0;stroke-width:9.72"/>
	<line x1="2112.92" y1="1475.72" x2="2177.72" y2="1475.72" style="stroke:#F0F0F0;stroke-width:9.72"/>
	<line x1="2210.12" y1="1475.72" x2="2274.92" y2="1475.72" style="stroke:#F0F0F0;stroke-width:9.72"/>
	<line x1="2307.32" y1="1475.72" x2="2372.12" y2="1475.72" style="stroke:#F0F0F0;stroke-width:9.72"/>
	<line x1="2404.52" y1="1475.72" x2="2469.32" y2="1475.72" style="stroke:#F0F0F0;stroke-width:9.72"/>
	<line x1="2501.72" y1="1475.72" x2="2566.52" y2="1475.72" style="stroke:#F0F0F0;stroke-width:9.72"/>
	<line x1="2598.92" y1="1475.72" x2="2663.72" y2="1475.72" style="stroke:#F0F0F0;stroke-width:9.72"/>
	<line x1="2696.12" y1="1475.72" x2="2760.92" y2="1475.72" style="stroke:#F0F0F0;stroke-width:9.72"/>
	<line x1="2793.32" y1="1475.72" x2="2858.12" y2="1475.72" style="stroke:#F0F0F0;stroke-width:9.72"/>
	<line x1="2890.52" y1="1475.72" x2="2955.32" y2="1475.72" style="stroke:#F0F0F0;stroke-width:9.72"/>
	<line x1="2987.72" y1="1475.72" x2="3052.52" y2="1475.72" style="stroke:#F0F0F0;stroke-width:9.72"/>
	<line x1="3084.92" y1="1475.72" x2="3149.72" y2="1475.72" style="stroke:#F0F0F0;stroke-width:9.72"/>
	<line x1="3182.12" y1="1475.72" x2="3246.92" y2="1475.72" style="stroke:#F0F0F0;stroke-width:9.72"/>
	<line x1="3279.32" y1="1475.72" x2="3344.12" y2="1475.72" style="stroke:#F0F0F0;stroke-width:9.72"/>
	<line x1="3376.52" y1="1475.72" x2="3387.15" y2="1475.72" style="stroke:#F0F0F0;stroke-width:9.72"/>
	<line x1="557.72" y1="830.08" x2="622.52" y2="830.08" style="stroke:#F0F0F0;stroke-width:9.72"/>
	<line x1="654.92" y1="830.08" x2="719.72" y2="830.08" style="stroke:#F0F0F0;stroke-width:9.72"/>
	<line x1="752.12" y1="830.08" x2="816.92" y2="830.08" style="stroke:#F0F0F0;stroke-width:9.72"/>
	<line x1="849.32" y1="830.08" x2="914.12" y2="830.08" style="stroke:#F0F0F0;stroke-width:9.72"/>
	<line x1="946.52" y1="830.08" x2="1011.32" y2="830.08" style="stroke:#F0F0F0;stroke-width:9.72"/>
	<line x1="1043.72" y1="830.08" x2="1108.52" y2="830.08" style="stroke:#F0F0F0;stroke-width:9.72"/>
	<line x1="1140.92" y1="830.08" x2="1205.72" y2="830.08" style="stroke:#F0F0F0;stroke-width:9.72"/>
	<line x1="1238.12" y1="830.08" x2="1302.92" y2="830.08" style="stroke:#F0F0F0;stroke-width:9.72"/>
	<line x1="1335.32" y1="830.08" x2="1400.12" y2="830.08" style="stroke:#F0F0F0;stroke-width:9.72"/>
	<line x1="1432.52" y1="830.08" x2="1497.32" y2="830.08" style="stroke:#F0F0F0;stroke-width:9.72"/>
	<line x1="1529.72" y1="830.08" x2="1594.52" y2="830.08" style="stroke:#F0F0F0;stroke-width:9.72"/>
	<line x1="1626.92" y1="830.08" x2="1691.72" y2="830.08" style="stroke:#F0F0F0;stroke-width:9.72"/>
	<line x1="1724.12" y1="830.08" x2="1788.92" y2="830.08" style="stroke:#F0F0F0;stroke-width:9.72"/>
	<line x1="1821.32" y1="830.08" x2="1886.12" y2="830.08" style="stroke:#F0F0F0;stroke-width:9.72"/>
	<line x1="1918.52" y1="830.08" x2="1983.32" y2="830.08" style="stroke:#F0F0F0;stroke-width:9.72"/>
	<line x1="2015.72" y1="830.08" x2="2080.52" y2="830.08" style="stroke:#F0F0F0;stroke-width:9.72"/>
	<line x1="2112.92" y1="830.08" x2="2177.72" y2="830.08" style="stroke:#F0F0F0;stroke-width:9.72"/>
	<line x1="2210.12" y1="830.08" x2="2274.92" y2="830.08" style="stroke:#F0F0F0;stroke-width:9.72"/>
	<line x1="2307.32" y1="830.08" x2="2372.12" y2="830.08" style="stroke:#F0F0F0;stroke-width:9.72"/>
	<line x1="2404.52" y1="830.08" x2="2469.32" y2="830.08" style="stroke:#F0F0F0;stroke-width:9.72"/>
	<line x1="2501.72" y1="830.08" x2="2566.52" y2="830.08" style="stroke:#F0F0F0;stroke-width:9.72"/>
	<line x1="2598.92" y1="830.08" x2="2663.72" y2="830.08" style="stroke:#F0F0F0;stroke-width:9.72"/>
	<line x1="2696.12" y1="830.08" x2="2760.92" y2="830.08" style="stroke:#F0F0F0;stroke-width:9.72"/>
	<line x1="2793.32" y1="830.08" x2="2858.12" y2="830.08" style="stroke:#F0F0F0;stroke-width:9.72"/>
	<line x1="2890.52" y1="830.08" x2="2955.32" y2="830.08" style="stroke:#F0F0F0;stroke-width:9.72"/>
	<line x1="2987.72" y1="830.08" x2="3052.52" y2="830.08" style="stroke:#F0F0F0;stroke-width:9.72"/>
	<line x1="3084.92" y1="830.08" x2="3149.72" y2="830.08" style="stroke:#F0F0F0;stroke-width:9.72"/>
	<line x1="3182.12" y1="830.08" x2="3246.92" y2="830.08" style="stroke:#F0F0F0;stroke-width:9.72"/>
	<line x1="3279.32" y1="830.08" x2="3344.12" y2="830.08" style="stroke:#F0F0F0;stroke-width:9.72"/>
	<line x1="3376.52" y1="830.08" x2="3387.15" y2="830.08" style="stroke:#F0F0F0;stroke-width:9.72"/>
	<line x1="557.72" y1="184.61" x2="622.52" y2="184.61" style="stroke:#F0F0F0;stroke-width:9.72"/>
	<line x1="654.92" y1="184.61" x2="719.72" y2="184.61" style="stroke:#F0F0F0;stroke-width:9.72"/>
	<line x1="752.12" y1="184.61" x2="816.92" y2="184.61" style="stroke:#F0F0F0;stroke-width:9.72"/>
	<line x1="849.32" y1="184.61" x2="914.12" y2="184.61" style="stroke:#F0F0F0;stroke-width:9.72"/>
	<line x1="946.52" y1="184.61" x2="1011.32" y2="184.61" style="stroke:#F0F0F0;stroke-width:9.72"/>
	<line x1="1043.72" y1="184.61" x2="1108.52" y2="184.61" style="stroke:#F0F0F0;stroke-width:9.72"/>
	<line x1="1140.92" y1="184.61" x2="1205.72" y2="184.61" style="stroke:#F0F0F0;stroke-width:9.72"/>
	<line x1="1238.12" y1="184.61" x2="1302.92" y2="184.61" style="stroke:#F0F0F0;stroke-width:9.72"/>
	<line x1="1335.32" y1="184.61" x2="1400.12" y2="184.61" style="stroke:#F0F0F0;stroke-width:9.72"/>
	<line x1="1432.52" y1="184.61" x2="1497.32" y2="184.61" style="stroke:#F0F0F0;stroke-width:9.72"/>
	<line x1="1529.72" y1="184.61" x2="1594.52" y2="184.61" style="stroke:#F0F0F0;stroke-width:9.72"/>
	<line x1="1626.92" y1="184.61" x2="1691.72" y2="184.61" style="stroke:#F0F0F0;stroke-width:9.72"/>
	<line x1="1724.12" y1="184.61" x2="1788.92" y2="184.61" style="stroke:#F0F0F0;stroke-width:9.72"/>
	<line x1="1821.32" y1="184.61" x2="1886.12" y2="184.61" style="stroke:#F0F0F0;stroke-width:9.72"/>
	<line x1="1918.52" y1="184.61" x2="1983.32" y2="184.61" style="stroke:#F0F0F0;stroke-width:9.72"/>
	<line x1="2015.72" y1="184.61" x2="2080.52" y2="184.61" style="stroke:#F0F0F0;stroke-width:9.72"/>
	<line x1="2112.92" y1="184.61" x2="2177.72" y2="184.61" style="stroke:#F0F0F0;stroke-width:9.72"/>
	<line x1="2210.12" y1="184.61" x2="2274.92" y2="184.61" style="stroke:#F0F0F0;stroke-width:9.72"/>
	<line x1="2307.32" y1="184.61" x2="2372.12" y2="184.61" style="stroke:#F0F0F0;stroke-width:9.72"/>
	<line x1="2404.52" y1="184.61" x2="2469.32" y2="184.61" style="stroke:#F0F0F0;stroke-width:9.72"/>
	<line x1="2501.72" y1="184.61" x2="2566.52" y2="184.61" style="stroke:#F0F0F0;stroke-width:9.72"/>
	<line x1="2598.92" y1="184.61" x2="2663.72" y2="184.61" style="stroke:#F0F0F0;stroke-width:9.72"/>
	<line x1="2696.12" y1="184.61" x2="2760.92" y2="184.61" style="stroke:#F0F0F0;stroke-width:9.72"/>
	<line x1="2793.32" y1="184.61" x2="2858.12" y2="184.61" style="stroke:#F0F0F0;stroke-width:9.72"/>
	<line x1="2890.52" y1="184.61" x2="2955.32" y2="184.61" style="stroke:#F0F0F0;stroke-width:9.72"/>
	<line x1="2987.72" y1="184.61" x2="3052.52" y2="184.61" style="stroke:#F0F0F0;stroke-width:9.72"/>
	<line x1="3084.92" y1="184.61" x2="3149.72" y2="184.61" style="stroke:#F0F0F0;stroke-width:9.72"/>
	<line x1="3182.12" y1="184.61" x2="3246.92" y2="184.61" style="stroke:#F0F0F0;stroke-width:9.72"/>
	<line x1="3279.32" y1="184.61" x2="3344.12" y2="184.61" style="stroke:#F0F0F0;stroke-width:9.72"/>
	<line x1="3376.52" y1="184.61" x2="3387.15" y2="184.61" style="stroke:#F0F0F0;stroke-width:9.72"/>
	<line x1="856.74" y1="2766.66" x2="856.74" y2="2701.86" style="stroke:#F0F0F0;stroke-width:9.72"/>
	<line x1="856.74" y1="2669.46" x2="856.74" y2="2604.66" style="stroke:#F0F0F0;stroke-width:9.72"/>
	<line x1="856.74" y1="2572.26" x2="856.74" y2="2507.46" style="stroke:#F0F0F0;stroke-width:9.72"/>
	<line x1="856.74" y1="2475.06" x2="856.74" y2="2410.26" style="stroke:#F0F0F0;stroke-width:9.72"/>
	<line x1="856.74" y1="2377.86" x2="856.74" y2="2313.06" style="stroke:#F0F0F0;stroke-width:9.72"/>
	<line x1="856.74" y1="2280.66" x2="856.74" y2="2215.86" style="stroke:#F0F0F0;stroke-width:9.72"/>
	<line x1="856.74" y1="2183.46" x2="856.74" y2="2118.66" style="stroke:#F0F0F0;stroke-width:9.72"/>
	<line x1="856.74" y1="2086.26" x2="856.74" y2="2021.46" style="stroke:#F0F0F0;stroke-width:9.72"/>
	<line x1="856.74" y1="1989.06" x2="856.74" y2="1924.26" style="stroke:#F0F0F0;stroke-width:9.72"/>
	<line x1="856.74" y1="1891.86" x2="856.74" y2="1827.06" style="stroke:#F0F0F0;stroke-width:9.72"/>
	<line x1="856.74" y1="1794.66" x2="856.74" y2="1729.86" style="stroke:#F0F0F0;stroke-width:9.72"/>
	<line x1="856.74" y1="1697.46" x2="856.74" y2="1632.66" style="stroke:#F0F0F0;stroke-width:9.72"/>
	<line x1="856.74" y1="1600.26" x2="856.74" y2="1535.46" style="stroke:#F0F0F0;stroke-width:9.72"/>
	<line x1="856.74" y1="1503.06" x2="856.74" y2="1438.26" style="stroke:#F0F0F0;stroke-width:9.72"/>
	<line x1="856.74" y1="1405.86" x2="856.74" y2="1341.06" style="stroke:#F0F0F0;stroke-width:9.72"/>
	<line x1="856.74" y1="1308.66" x2="856.74" y2="1243.86" style="stroke:#F0F0F0;stroke-width:9.72"/>
	<line x1="856.74" y1="1211.46" x2="856.74" y2="1146.66" style="stroke:#F0F0F0;stroke-width:9.72"/>
	<line x1="856.74" y1="1114.26" x2="856.74" y2="1049.46" style="stroke:#F0F0F0;stroke-width:9.72"/>
	<line x1="856.74" y1="1017.06" x2="856.74" y2="952.26" style="stroke:#F0F0F0;stroke-width:9.72"/>
	<line x1="856.74" y1="919.86" x2="856.74" y2="855.06" style="stroke:#F0F0F0;stroke-width:9.72"/>
	<line x1="856.74" y1="822.66" x2="856.74" y2="757.86" style="stroke:#F0F0F0;stroke-width:9.72"/>
	<line x1="856.74" y1="725.46" x2="856.74" y2="660.66" style="stroke:#F0F0F0;stroke-width:9.72"/>
	<line x1="856.74" y1="628.26" x2="856.74" y2="563.46" style="stroke:#F0F0F0;stroke-width:9.72"/>
	<line x1="856.74" y1="531.06" x2="856.74" y2="466.26" style="stroke:#F0F0F0;stroke-width:9.72"/>
	<line x1="856.74" y1="433.86" x2="856.74" y2="369.06" style="stroke:#F0F0F0;stroke-width:9.72"/>
	<line x1="856.74" y1="336.66" x2="856.74" y2="271.86" style="stroke:#F0F0F0;stroke-width:9.72"/>
	<line x1="856.74" y1="239.46" x2="856.74" y2="174.66" style="stroke:#F0F0F0;stroke-width:9.72"/>
	<line x1="856.74" y1="142.26" x2="856.74" y2="113.40" style="stroke:#F0F0F0;stroke-width:9.72"/>
	<line x1="1616.79" y1="2766.66" x2="1616.79" y2="2701.86" style="stroke:#F0F0F0;stroke-width:9.72"/>
	<line x1="1616.79" y1="2669.46" x2="1616.79" y2="2604.66" style="stroke:#F0F0F0;stroke-width:9.72"/>
	<line x1="1616.79" y1="2572.26" x2="1616.79" y2="2507.46" style="stroke:#F0F0F0;stroke-width:9.72"/>
	<line x1="1616.79" y1="2475.06" x2="1616.79" y2="2410.26" style="stroke:#F0F0F0;stroke-width:9.72"/>
	<line x1="1616.79" y1="2377.86" x2="1616.79" y2="2313.06" style="stroke:#F0F0F0;stroke-width:9.72"/>
	<line x1="1616.79" y1="2280.66" x2="1616.79" y2="2215.86" style="stroke:#F0F0F0;stroke-width:9.72"/>
	<line x1="1616.79" y1="2183.46" x2="1616.79" y2="2118.66" style="stroke:#F0F0F0;stroke-width:9.72"/>
	<line x1="1616.79" y1="2086.26" x2="1616.79" y2="2021.46" style="stroke:#F0F0F0;stroke-width:9.72"/>
	<line x1="1616.79" y1="1989.06" x2="1616.79" y2="1924.26" style="stroke:#F0F0F0;stroke-width:9.72"/>
	<line x1="1616.79" y1="1891.86" x2="1616.79" y2="1827.06" style="stroke:#F0F0F0;stroke-width:9.72"/>
	<line x1="1616.79" y1="1794.66" x2="1616.79" y2="1729.86" style="stroke:#F0F0F0;stroke-width:9.72"/>
	<line x1="1616.79" y1="1697.46" x2="1616.79" y2="1632.66" style="stroke:#F0F0F0;stroke-width:9.72"/>
	<line x1="1616.79" y1="1600.26" x2="1616.79" y2="1535.46" style="stroke:#F0F0F0;stroke-width:9.72"/>
	<line x1="1616.79" y1="1503.06" x2="1616.79" y2="1438.26" style="stroke:#F0F0F0;stroke-width:9.72"/>
	<line x1="1616.79" y1="1405.86" x2="1616.79" y2="1341.06" style="stroke:#F0F0F0;stroke-width:9.72"/>
	<line x1="1616.79" y1="1308.66" x2="1616.79" y2="1243.86" style="stroke:#F0F0F0;stroke-width:9.72"/>
	<line x1="1616.79" y1="1211.46" x2="1616.79" y2="1146.66" style="stroke:#F0F0F0;stroke-width:9.72"/>
	<line x1="1616.79" y1="1114.26" x2="1616.79" y2="1049.46" style="stroke:#F0F0F0;stroke-width:9.72"/>
	<line x1="1616.79" y1="1017.06" x2="1616.79" y2="952.26" style="stroke:#F0F0F0;stroke-width:9.72"/>
	<line x1="1616.79" y1="919.86" x2="1616.79" y2="855.06" style="stroke:#F0F0F0;stroke-width:9.72"/>
	<line x1="1616.79" y1="822.66" x2="1616.79" y2="757.86" style="stroke:#F0F0F0;stroke-width:9.72"/>
	<line x1="1616.79" y1="725.46" x2="1616.79" y2="660.66" style="stroke:#F0F0F0;stroke-width:9.72"/>
	<line x1="1616.79" y1="628.26" x2="1616.79" y2="563.46" style="stroke:#F0F0F0;stroke-width:9.72"/>
	<line x1="1616.79" y1="531.06" x2="1616.79" y2="466.26" style="stroke:#F0F0F0;stroke-width:9.72"/>
	<line x1="1616.79" y1="433.86" x2="1616.79" y2="369.06" style="stroke:#F0F0F0;stroke-width:9.72"/>
	<line x1="1616.79" y1="336.66" x2="1616.79" y2="271.86" style="stroke:#F0F0F0;stroke-width:9.72"/>
	<line x1="1616.79" y1="239.46" x2="1616.79" y2="174.66" style="stroke:#F0F0F0;stroke-width:9.72"/>
	<line x1="1616.79" y1="142.26" x2="1616.79" y2="113.40" style="stroke:#F0F0F0;stroke-width:9.72"/>
	<line x1="2376.84" y1="2766.66" x2="2376.84" y2="2701.86" style="stroke:#F0F0F0;stroke-width:9.72"/>
	<line x1="2376.84" y1="2669.46" x2="2376.84" y2="2604.66" style="stroke:#F0F0F0;stroke-width:9.72"/>
	<line x1="2376.84" y1="2572.26" x2="2376.84" y2="2507.46" style="stroke:#F0F0F0;stroke-width:9.72"/>
	<line x1="2376.84" y1="2475.06" x2="2376.84" y2="2410.26" style="stroke:#F0F0F0;stroke-width:9.72"/>
	<line x1="2376.84" y1="2377.86" x2="2376.84" y2="2313.06" style="stroke:#F0F0F0;stroke-width:9.72"/>
	<line x1="2376.84" y1="2280.66" x2="2376.84" y2="2215.86" style="stroke:#F0F0F0;stroke-width:9.72"/>
	<line x1="2376.84" y1="2183.46" x2="2376.84" y2="2118.66" style="stroke:#F0F0F0;stroke-width:9.72"/>
	<line x1="2376.84" y1="2086.26" x2="2376.84" y2="2021.46" style="stroke:#F0F0F0;stroke-width:9.72"/>
	<line x1="2376.84" y1="1989.06" x2="2376.84" y2="1924.26" style="stroke:#F0F0F0;stroke-width:9.72"/>
	<line x1="2376.84" y1="1891.86" x2="2376.84" y2="1827.06" style="stroke:#F0F0F0;stroke-width:9.72"/>
	<line x1="2376.84" y1="1794.66" x2="2376.84" y2="1729.86" style="stroke:#F0F0F0;stroke-width:9.72"/>
	<line x1="2376.84" y1="1697.46" x2="2376.84" y2="1632.66" style="stroke:#F0F0F0;stroke-width:9.72"/>
	<line x1="2376.84" y1="1600.26" x2="2376.84" y2="1535.46" style="stroke:#F0F0F0;stroke-width:9.72"/>
	<line x1="2376.84" y1="1503.06" x2="2376.84" y2="1438.26" style="stroke:#F0F0F0;stroke-width:9.72"/>
	<line x1="2376.84" y1="1405.86" x2="2376.84" y2="1341.06" style="stroke:#F0F0F0;stroke-width:9.72"/>
	<line x1="2376.84" y1="1308.66" x2="2376.84" y2="1243.86" style="stroke:#F0F0F0;stroke-width:9.72"/>
	<line x1="2376.84" y1="1211.46" x2="2376.84" y2="1146.66" style="stroke:#F0F0F0;stroke-width:9.72"/>
	<line x1="2376.84" y1="1114.26" x2="2376.84" y2="1049.46" style="stroke:#F0F0F0;stroke-width:9.72"/>
	<line x1="2376.84" y1="1017.06" x2="2376.84" y2="952.26" style="stroke:#F0F0F0;stroke-width:9.72"/>
	<line x1="2376.84" y1="919.86" x2="2376.84" y2="855.06" style="stroke:#F0F0F0;stroke-width:9.72"/>
	<line x1="2376.84" y1="822.66" x2="2376.84" y2="757.86" style="stroke:#F0F0F0;stroke-width:9.72"/>
	<line x1="2376.84" y1="725.46" x2="2376.84" y2="660.66" style="stroke:#F0F0F0;stroke-width:9.72"/>
	<line x1="2376.84" y1="628.26" x2="2376.84" y2="563.46" style="stroke:#F0F0F0;stroke-width:9.72"/>
	<line x1="2376.84" y1="531.06" x2="2376.84" y2="466.26" style="stroke:#F0F0F0;stroke-width:9.72"/>
	<line x1="2376.84" y1="433.86" x2="2376.84" y2="369.06" style="stroke:#F0F0F0;stroke-width:9.72"/>
	<line x1="2376.84" y1="336.66" x2="2376.84" y2="271.86" style="stroke:#F0F0F0;stroke-width:9.72"/>
	<line x1="2376.84" y1="239.46" x2="2376.84" y2="174.66" style="stroke:#F0F0F0;stroke-width:9.72"/>
	<line x1="2376.84" y1="142.26" x2="2376.84" y2="113.40" style="stroke:#F0F0F0;stroke-width:9.72"/>
	<line x1="3136.89" y1="2766.66" x2="3136.89" y2="2701.86" style="stroke:#F0F0F0;stroke-width:9.72"/>
	<line x1="3136.89" y1="2669.46" x2="3136.89" y2="2604.66" style="stroke:#F0F0F0;stroke-width:9.72"/>
	<line x1="3136.89" y1="2572.26" x2="3136.89" y2="2507.46" style="stroke:#F0F0F0;stroke-width:9.72"/>
	<line x1="3136.89" y1="2475.06" x2="3136.89" y2="2410.26" style="stroke:#F0F0F0;stroke-width:9.72"/>
	<line x1="3136.89" y1="2377.86" x2="3136.89" y2="2313.06" style="stroke:#F0F0F0;stroke-width:9.72"/>
	<line x1="3136.89" y1="2280.66" x2="3136.89" y2="2215.86" style="stroke:#F0F0F0;stroke-width:9.72"/>
	<line x1="3136.89" y1="2183.46" x2="3136.89" y2="2118.66" style="stroke:#F0F0F0;stroke-width:9.72"/>
	<line x1="3136.89" y1="2086.26" x2="3136.89" y2="2021.46" style="stroke:#F0F0F0;stroke-width:9.72"/>
	<line x1="3136.89" y1="1989.06" x2="3136.89" y2="1924.26" style="stroke:#F0F0F0;stroke-width:9.72"/>
	<line x1="3136.89" y1="1891.86" x2="3136.89" y2="1827.06" style="stroke:#F0F0F0;stroke-width:9.72"/>
	<line x1="3136.89" y1="1794.66" x2="3136.89" y2="1729.86" style="stroke:#F0F0F0;stroke-width:9.72"/>
	<line x1="3136.89" y1="1697.46" x2="3136.89" y2="1632.66" style="stroke:#F0F0F0;stroke-width:9.72"/>
	<line x1="3136.89" y1="1600.26" x2="3136.89" y2="1535.46" style="stroke:#F0F0F0;stroke-width:9.72"/>
	<line x1="3136.89" y1="1503.06" x2="3136.89" y2="1438.26" style="stroke:#F0F0F0;stroke-width:9.72"/>
	<line x1="3136.89" y1="1405.86" x2="3136.89" y2="1341.06" style="stroke:#F0F0F0;stroke-width:9.72"/>
	<line x1="3136.89" y1="1308.66" x2="3136.89" y2="1243.86" style="stroke:#F0F0F0;stroke-width:9.72"/>
	<line x1="3136.89" y1="1211.46" x2="3136.89" y2="1146.66" style="stroke:#F0F0F0;stroke-width:9.72"/>
	<line x1="3136.89" y1="1114.26" x2="3136.89" y2="1049.46" style="stroke:#F0F0F0;stroke-width:9.72"/>
	<line x1="3136.89" y1="1017.06" x2="3136.89" y2="952.26" style="stroke:#F0F0F0;stroke-width:9.72"/>
	<line x1="3136.89" y1="919.86" x2="3136.89" y2="855.06" style="stroke:#F0F0F0;stroke-width:9.72"/>
	<line x1="3136.89" y1="822.66" x2="3136.89" y2="757.86" style="stroke:#F0F0F0;stroke-width:9.72"/>
	<line x1="3136.89" y1="725.46" x2="3136.89" y2="660.66" style="stroke:#F0F0F0;stroke-width:9.72"/>
	<line x1="3136.89" y1="628.26" x2="3136.89" y2="563.46" style="stroke:#F0F0F0;stroke-width:9.72"/>
	<line x1="3136.89" y1="531.06" x2="3136.89" y2="466.26" style="stroke:#F0F0F0;stroke-width:9.72"/>
	<line x1="3136.89" y1="433.86" x2="3136.89" y2="369.06" style="stroke:#F0F0F0;stroke-width:9.72"/>
	<line x1="3136.89" y1="336.66" x2="3136.89" y2="271.86" style="stroke:#F0F0F0;stroke-width:9.72"/>
	<line x1="3136.89" y1="239.46" x2="3136.89" y2="174.66" style="stroke:#F0F0F0;stroke-width:9.72"/>
	<line x1="3136.89" y1="142.26" x2="3136.89" y2="113.40" style="stroke:#F0F0F0;stroke-width:9.72"/>
	<rect x="850.33" y="2581.88" width="442.63" height="184.78" style="fill:#FF8C19;fill-opacity:0.40"/>
	<rect x="852.76" y="2584.30" width="437.77" height="179.92" style="fill:none;stroke:#5FAAFF;stroke-width:4.86"/>
	<rect x="1292.96" y="2027.70" width="442.63" height="738.96" style="fill:#FF8C19;fill-opacity:0.40"/>
	<rect x="1295.39" y="2030.13" width="437.77" height="734.10" style="fill:none;stroke:#5FAAFF;stroke-width:4.86"/>
	<rect x="1735.59" y="1103.96" width="442.63" height="1662.69" style="fill:#FF8C19;fill-opacity:0.40"/>
	<rect x="1738.02" y="1106.39" width="437.77" height="1657.83" style="fill:none;stroke:#5FAAFF;stroke-width:4.86"/>
	<rect x="2178.23" y="1103.96" width="442.46" height="1662.69" style="fill:#FF8C19;fill-opacity:0.40"/>
	<rect x="2180.65" y="1106.39" width="437.60" height="1657.83" style="fill:none;stroke:#5FAAFF;stroke-width:4.86"/>
	<rect x="2620.69" y="1473.53" width="442.63" height="1293.13" style="fill:#FF8C19;fill-opacity:0.40"/>
	<rect x="2623.12" y="1475.96" width="437.77" height="1288.27" style="fill:none;stroke:#5FAAFF;stroke-width:4.86"/>
	<path d=" M850.33 2716.03 L857.59 2714.01 L865.01 2711.98 L872.44 2709.96 L879.86 2707.76 L887.29 2705.40 L894.71 2703.21 L902.14 2700.68 L909.39 2698.31 L916.82 2695.61 L924.24 2693.08 L931.67 2690.38 L939.09 2687.51 L946.52 2684.64 L953.94 2681.61 L961.20 2678.57 L968.63 2675.36 L976.05 2672.16 L983.48 2668.78 L990.90 2665.24 L998.33 2661.69 L1005.75 2657.98 L1013.18 2654.27 L1020.43 2650.39 L1027.86 2646.34 L1035.28 2642.29 L1042.71 2638.07 L1050.13 2633.85 L1057.56 2629.29 L1064.98 2624.74 L1072.24 2620.01 L1079.66 2615.29 L1087.09 2610.39 L1094.51 2605.33 L1101.94 2600.10 L1109.36 2594.87 L1116.79 2589.30 L1124.04 2583.73 L1131.47 2577.99 L1138.89 2572.09 L1146.32 2566.18 L1153.74 2559.94 L1161.17 2553.69 L1168.59 2547.28 L1175.85 2540.70 L1183.28 2533.95 L1190.70 2527.03 L1198.13 2519.94 L1205.55 2512.69 L1212.97 2505.43 L1220.40 2497.84 L1227.66 2490.24 L1235.08 2482.31 L1242.51 2474.38 L1249.93 2466.28 L1257.36 2457.84 L1264.78 2449.41 L1272.21 2440.63 L1279.46 2431.86 L1286.89 2422.91 L1294.31 2413.63 L1301.74 2404.35 L1309.16 2394.90 L1316.59 2385.11 L1324.01 2375.32 L1331.44 2365.37 L1338.69 2355.07 L1346.12 2344.78 L1353.54 2334.15 L1360.97 2323.52 L1368.39 2312.55 L1375.82 2301.58 L1383.24 2290.28 L1390.50 2278.80 L1397.93 2267.32 L1405.35 2255.51 L1412.78 2243.53 L1420.20 2231.55 L1427.63 2219.23 L1435.05 2206.91 L1442.31 2194.26 L1449.73 2181.60 L1457.16 2168.61 L1464.58 2155.61 L1472.01 2142.28 L1479.43 2128.95 L1486.86 2115.45 L1494.11 2101.78 L1501.54 2087.94 L1508.96 2073.94 L1516.39 2059.76 L1523.81 2045.59 L1531.24 2031.08 L1538.66 2016.56 L1545.92 2001.88 L1553.34 1987.20 L1560.77 1972.18 L1568.19 1957.16 L1575.62 1941.98 L1583.04 1926.79 L1590.47 1911.43 L1597.73 1895.91 L1605.15 1880.38 L1612.58 1864.69 L1620.00 1848.99 L1627.43 1833.13 L1634.85 1817.27 L1642.28 1801.24 L1649.70 1785.21 L1656.96 1769.01 L1664.38 1752.81 L1671.81 1736.61 L1679.23 1720.41 L1686.66 1704.04 L1694.08 1687.67 L1701.51 1671.30 L1708.76 1654.93 L1716.19 1638.56 L1723.61 1622.03 L1731.04 1605.66 L1738.46 1589.29 L1745.89 1572.92 L1753.31 1556.55 L1760.57 1540.18 L1767.99 1523.81 L1775.42 1507.61 L1782.84 1491.24 L1790.27 1475.21 L1797.69 1459.01 L1805.12 1442.98 L1812.38 1426.95 L1819.80 1411.09 L1827.23 1395.39 L1834.65 1379.70 L1842.08 1364.01 L1849.50 1348.65 L1856.93 1333.29 L1864.18 1318.11 L1871.61 1302.92 L1879.03 1288.07 L1886.46 1273.22 L1893.88 1258.71 L1901.31 1244.19 L1908.73 1229.85 L1915.99 1215.84 L1923.41 1202.01 L1930.84 1188.17 L1938.26 1174.84 L1945.69 1161.51 L1953.11 1148.51 L1960.54 1135.69 L1967.79 1123.03 L1975.22 1110.71 L1982.64 1098.56 L1990.07 1086.75 L1997.49 1075.11 L2004.92 1063.80 L2012.34 1052.83 L2019.77 1042.03 L2027.03 1031.57 L2034.45 1021.44 L2041.88 1011.49 L2049.30 1001.87 L2056.73 992.59 L2064.15 983.64 L2071.57 975.04 L2078.83 966.77 L2086.26 958.84 L2093.68 951.24 L2101.11 943.99 L2108.53 936.90 L2115.96 930.32 L2123.38 924.07 L2130.64 918.34 L2138.06 912.77 L2145.49 907.54 L2152.91 902.81 L2160.34 898.43 L2167.76 894.38 L2175.19 890.66 L2182.44 887.46 L2189.87 884.42 L2197.29 881.89 L2204.72 879.86 L2212.14 878.01 L2219.57 876.66 L2226.99 875.64 L2234.25 874.97 L2241.68 874.80 L2249.10 874.97 L2256.53 875.47 L2263.95 876.49 L2271.38 877.84 L2278.80 879.53 L2286.06 881.72 L2293.48 884.08 L2300.91 886.95 L2308.33 890.16 L2315.76 893.87 L2323.18 897.92 L2330.61 902.31 L2338.03 907.03 L2345.29 912.09 L2352.71 917.49 L2360.14 923.40 L2367.56 929.64 L2374.99 936.06 L2382.41 942.97 L2389.84 950.23 L2397.09 957.82 L2404.52 965.76 L2411.94 974.03 L2419.37 982.63 L2426.79 991.57 L2434.22 1000.69 L2441.64 1010.31 L2448.90 1020.09 L2456.32 1030.22 L2463.75 1040.68 L2471.18 1051.31 L2478.60 1062.45 L2486.03 1073.76 L2493.45 1085.23 L2500.71 1097.04 L2508.13 1109.19 L2515.56 1121.51 L2522.98 1134.00 L2530.41 1146.82 L2537.83 1159.82 L2545.26 1173.15 L2552.51 1186.48 L2559.94 1200.15 L2567.36 1214.16 L2574.79 1228.16 L2582.21 1242.34 L2589.64 1256.85 L2597.06 1271.36 L2604.32 1286.21 L2611.74 1301.06 L2619.17 1316.08 L2626.59 1331.27 L2634.02 1346.63 L2641.44 1362.15 L2648.87 1377.68 L2656.29 1393.37 L2663.55 1409.06 L2670.98 1424.93 L2678.40 1440.96 L2685.83 1456.99 L2693.25 1473.02 L2700.68 1489.22 L2708.10 1505.42 L2715.36 1521.79 L2722.78 1538.16 L2730.21 1554.36 L2737.63 1570.73 L2745.06 1587.26 L2752.48 1603.63 L2759.91 1620.00 L2767.16 1636.37 L2774.59 1652.91 L2782.01 1669.28 L2789.44 1685.64 L2796.86 1702.01 L2804.29 1718.38 L2811.71 1734.58 L2818.97 1750.78 L2826.39 1766.98 L2833.82 1783.18 L2841.24 1799.21 L2848.67 1815.24 L2856.09 1831.11 L2863.52 1846.97 L2870.78 1862.66 L2878.20 1878.36 L2885.63 1894.05 L2893.05 1909.41 L2900.48 1924.93 L2907.90 1940.12 L2915.33 1955.31 L2922.58 1970.33 L2930.01 1985.34 L2937.43 2000.03 L2944.86 2014.71 L2952.28 2029.39 L2959.71 2043.73 L2967.13 2058.07 L2974.39 2072.08 L2981.81 2086.09 L2989.24 2099.93 L2996.66 2113.76 L3004.09 2127.26 L3011.51 2140.59 L3018.94 2153.93 L3026.36 2166.92 L3033.62 2179.91 L3041.04 2192.74 L3048.47 2205.23 L3055.89 2217.71 L3063.32 2230.03" stroke-linejoin="round" style="fill:none;stroke:#000000;stroke-width:9.72"/>
	<rect x="1351.35" y="2142.28" width="392.85" height="624.38" style="fill:#198DFF;fill-opacity:0.50"/>
	<rect x="1353.78" y="2144.71" width="387.99" height="619.52" style="fill:none;stroke:#5FAAFF;stroke-width:4.86"/>
	<rect x="1744.20" y="477.39" width="393.02" height="2289.26" style="fill:#198DFF;fill-opacity:0.50"/>
	<rect x="1746.63" y="479.82" width="388.16" height="2284.40" style="fill:none;stroke:#5FAAFF;stroke-width:4.86"/>
	<rect x="2137.22" y="1517.91" width="392.85" height="1248.75" style="fill:#198DFF;fill-opacity:0.50"/>
	<rect x="2139.65" y="1520.34" width="387.99" height="1243.89" style="fill:none;stroke:#5FAAFF;stroke-width:4.86"/>
	<rect x="2530.07" y="1309.84" width="392.85" height="1456.82" style="fill:#198DFF;fill-opacity:0.50"/>
	<rect x="2532.50" y="1312.27" width="387.99" height="1451.96" style="fill:none;stroke:#5FAAFF;stroke-width:4.86"/>
	<rect x="2922.92" y="2142.28" width="393.02" height="624.38" style="fill:#198DFF;fill-opacity:0.50"/>
	<rect x="2925.35" y="2144.71" width="388.16" height="619.52" style="fill:none;stroke:#5FAAFF;stroke-width:4.86"/>
	<line x1="557.72" y1="2766.66" x2="557.72" y2="113.40" style="stroke:#000000;stroke-width:6.48"/>
	<line x1="557.72" y1="2766.66" x2="512.83" y2="2766.66" style="stroke:#000000;stroke-width:6.48"/>
	<text x="490.22" y="2806.09" style="font-family:'Helvetica';font-size:112.56px;fill:#000000" text-anchor="end">0</text>
	<line x1="557.72" y1="2121.19" x2="512.83" y2="2121.19" style="stroke:#000000;stroke-width:6.48"/>
	<text x="490.22" y="2160.62" style="font-family:'Helvetica';font-size:112.56px;fill:#000000" text-anchor="end">.01</text>
	<line x1="557.72" y1="1475.72" x2="512.83" y2="1475.72" style="stroke:#000000;stroke-width:6.48"/>
	<text x="490.22" y="1515.16" style="font-family:'Helvetica';font-size:112.56px;fill:#000000" text-anchor="end">.02</text>
	<line x1="557.72" y1="830.08" x2="512.83" y2="830.08" style="stroke:#000000;stroke-width:6.48"/>
	<text x="490.22" y="869.52" style="font-family:'Helvetica';font-size:112.56px;fill:#000000" text-anchor="end">.03</text>
	<line x1="557.72" y1="184.61" x2="512.83" y2="184.61" style="stroke:#000000;stroke-width:6.48"/>
	<text x="490.22" y="224.05" style="font-family:'Helvetica';font-size:112.56px;fill:#000000" text-anchor="end">.04</text>
	<text x="214.55" y="1439.94" style="font-family:'Helvetica';font-size:112.56px;fill:#000000" transform="rotate(-90 214.55,1439.94)" text-anchor="middle">Density</text>
	<line x1="557.72" y1="2766.66" x2="3387.15" y2="2766.66" style="stroke:#000000;stroke-width:6.48"/>
	<line x1="856.74" y1="2766.66" x2="856.74" y2="2811.54" style="stroke:#000000;stroke-width:6.48"/>
	<text x="856.74" y="2912.86" style="font-family:'Helvetica';font-size:112.56px;fill:#000000" text-anchor="middle">20</text>
	<line x1="1616.79" y1="2766.66" x2="1616.79" y2="2811.54" style="stroke:#000000;stroke-width:6.48"/>
	<text x="1616.79" y="2912.86" style="font-family:'Helvetica';font-size:112.56px;fill:#000000" text-anchor="middle">40</text>
	<line x1="2376.84" y1="2766.66" x2="2376.84" y2="2811.54" style="stroke:#000000;stroke-width:6.48"/>
	<text x="2376.84" y="2912.86" style="font-family:'Helvetica';font-size:112.56px;fill:#000000" text-anchor="middle">60</text>
	<line x1="3136.89" y1="2766.66" x2="3136.89" y2="2811.54" style="stroke:#000000;stroke-width:6.48"/>
	<text x="3136.89" y="2912.86" style="font-family:'Helvetica';font-size:112.56px;fill:#000000" text-anchor="middle">80</text>
	<text x="1972.52" y="3070.31" style="font-family:'Helvetica';font-size:112.56px;fill:#000000" text-anchor="middle">age</text>
	<rect x="3425.96" y="1177.71" width="1821.83" height="524.64" style="fill:#FFFFFF"/>
	<rect x="3429.20" y="1180.95" width="1815.35" height="518.16" style="fill:none;stroke:#FFFFFF;stroke-width:6.48"/>
	<rect x="3474.56" y="1226.31" width="259.20" height="112.39" style="fill:#FF8C19;fill-opacity:0.40"/>
	<rect x="3476.99" y="1228.74" width="254.34" height="107.53" style="fill:none;stroke:#5FAAFF;stroke-width:4.86"/>
	<line x1="3474.56" y1="1439.94" x2="3733.76" y2="1439.94" style="stroke:#000000;stroke-width:9.72"/>
	<rect x="3474.56" y="1541.19" width="259.20" height="112.56" style="fill:#198DFF;fill-opacity:0.50"/>
	<rect x="3476.99" y="1543.62" width="254.34" height="107.70" style="fill:none;stroke:#5FAAFF;stroke-width:4.86"/>
	<text x="3801.26" y="1321.94" style="font-family:'Helvetica';font-size:112.56px;fill:#000000">Sampled from Normal</text>
	<text x="3801.26" y="1479.38" style="font-family:'Helvetica';font-size:112.56px;fill:#000000">Theoretical Normal</text>
	<text x="3801.26" y="1636.99" style="font-family:'Helvetica';font-size:112.56px;fill:#000000">Sampled from t-distribution</text>
</svg>
